<mxfile host="Electron" modified="2023-12-03T04:10:29.471Z" agent="Mozilla/5.0 (Windows NT 10.0; Win64; x64) AppleWebKit/537.36 (KHTML, like Gecko) draw.io/22.1.2 Chrome/114.0.5735.289 Electron/25.9.4 Safari/537.36" etag="okxEWi4ABeC_N15-VATf" version="22.1.2" type="device">
  <diagram name="PÃ¡gina-1" id="y3HA_U1sFzAj7Tq1Uw8Z">
    <mxGraphModel dx="1418" dy="820" grid="1" gridSize="10" guides="1" tooltips="1" connect="1" arrows="1" fold="1" page="1" pageScale="1" pageWidth="850" pageHeight="1100" math="0" shadow="0">
      <root>
        <mxCell id="0" />
        <mxCell id="1" parent="0" />
        <mxCell id="Aag9fr4QGZ1FVb1t3TX5-14" style="rounded=0;orthogonalLoop=1;jettySize=auto;html=1;exitX=0.5;exitY=0;exitDx=0;exitDy=0;entryX=0.93;entryY=0.8;entryDx=0;entryDy=0;entryPerimeter=0;endArrow=none;endFill=0;" edge="1" parent="1" source="Aag9fr4QGZ1FVb1t3TX5-1" target="Aag9fr4QGZ1FVb1t3TX5-4">
          <mxGeometry relative="1" as="geometry" />
        </mxCell>
        <mxCell id="Aag9fr4QGZ1FVb1t3TX5-15" style="rounded=0;orthogonalLoop=1;jettySize=auto;html=1;exitX=0.5;exitY=0;exitDx=0;exitDy=0;entryX=0.5;entryY=1;entryDx=0;entryDy=0;startArrow=none;startFill=0;endArrow=none;endFill=0;" edge="1" parent="1" source="Aag9fr4QGZ1FVb1t3TX5-1" target="Aag9fr4QGZ1FVb1t3TX5-8">
          <mxGeometry relative="1" as="geometry" />
        </mxCell>
        <mxCell id="Aag9fr4QGZ1FVb1t3TX5-16" style="rounded=0;orthogonalLoop=1;jettySize=auto;html=1;exitX=0.5;exitY=0;exitDx=0;exitDy=0;entryX=0.5;entryY=1;entryDx=0;entryDy=0;endArrow=none;endFill=0;" edge="1" parent="1" source="Aag9fr4QGZ1FVb1t3TX5-1" target="Aag9fr4QGZ1FVb1t3TX5-6">
          <mxGeometry relative="1" as="geometry" />
        </mxCell>
        <mxCell id="Aag9fr4QGZ1FVb1t3TX5-17" style="rounded=0;orthogonalLoop=1;jettySize=auto;html=1;exitX=0.25;exitY=1;exitDx=0;exitDy=0;endArrow=none;endFill=0;" edge="1" parent="1" source="Aag9fr4QGZ1FVb1t3TX5-1" target="Aag9fr4QGZ1FVb1t3TX5-9">
          <mxGeometry relative="1" as="geometry" />
        </mxCell>
        <mxCell id="Aag9fr4QGZ1FVb1t3TX5-18" style="rounded=0;orthogonalLoop=1;jettySize=auto;html=1;exitX=0.5;exitY=1;exitDx=0;exitDy=0;entryX=0.5;entryY=0;entryDx=0;entryDy=0;endArrow=none;endFill=0;" edge="1" parent="1" source="Aag9fr4QGZ1FVb1t3TX5-1" target="Aag9fr4QGZ1FVb1t3TX5-10">
          <mxGeometry relative="1" as="geometry" />
        </mxCell>
        <mxCell id="Aag9fr4QGZ1FVb1t3TX5-19" style="rounded=0;orthogonalLoop=1;jettySize=auto;html=1;exitX=0.75;exitY=1;exitDx=0;exitDy=0;entryX=0;entryY=0;entryDx=0;entryDy=0;endArrow=none;endFill=0;" edge="1" parent="1" source="Aag9fr4QGZ1FVb1t3TX5-1" target="Aag9fr4QGZ1FVb1t3TX5-11">
          <mxGeometry relative="1" as="geometry" />
        </mxCell>
        <mxCell id="Aag9fr4QGZ1FVb1t3TX5-20" style="rounded=0;orthogonalLoop=1;jettySize=auto;html=1;exitX=0.5;exitY=1;exitDx=0;exitDy=0;entryX=0.59;entryY=0;entryDx=0;entryDy=0;endArrow=none;endFill=0;entryPerimeter=0;" edge="1" parent="1" source="Aag9fr4QGZ1FVb1t3TX5-1" target="Aag9fr4QGZ1FVb1t3TX5-13">
          <mxGeometry relative="1" as="geometry" />
        </mxCell>
        <mxCell id="Aag9fr4QGZ1FVb1t3TX5-21" style="rounded=0;orthogonalLoop=1;jettySize=auto;html=1;exitX=0.5;exitY=1;exitDx=0;exitDy=0;entryX=0.5;entryY=0;entryDx=0;entryDy=0;endArrow=none;endFill=0;" edge="1" parent="1" source="Aag9fr4QGZ1FVb1t3TX5-1" target="Aag9fr4QGZ1FVb1t3TX5-12">
          <mxGeometry relative="1" as="geometry" />
        </mxCell>
        <mxCell id="Aag9fr4QGZ1FVb1t3TX5-22" style="rounded=0;orthogonalLoop=1;jettySize=auto;html=1;exitX=1;exitY=0.5;exitDx=0;exitDy=0;entryX=0;entryY=0.5;entryDx=0;entryDy=0;" edge="1" parent="1" source="Aag9fr4QGZ1FVb1t3TX5-1" target="Aag9fr4QGZ1FVb1t3TX5-3">
          <mxGeometry relative="1" as="geometry" />
        </mxCell>
        <mxCell id="Aag9fr4QGZ1FVb1t3TX5-1" value="Participante" style="whiteSpace=wrap;html=1;align=center;" vertex="1" parent="1">
          <mxGeometry x="140" y="210" width="100" height="40" as="geometry" />
        </mxCell>
        <mxCell id="Aag9fr4QGZ1FVb1t3TX5-31" style="rounded=0;orthogonalLoop=1;jettySize=auto;html=1;exitX=0.5;exitY=0;exitDx=0;exitDy=0;entryX=0.5;entryY=1;entryDx=0;entryDy=0;endArrow=none;endFill=0;" edge="1" parent="1" source="Aag9fr4QGZ1FVb1t3TX5-2" target="Aag9fr4QGZ1FVb1t3TX5-5">
          <mxGeometry relative="1" as="geometry" />
        </mxCell>
        <mxCell id="Aag9fr4QGZ1FVb1t3TX5-34" style="rounded=0;orthogonalLoop=1;jettySize=auto;html=1;exitX=0.5;exitY=1;exitDx=0;exitDy=0;entryX=0;entryY=0;entryDx=0;entryDy=0;endArrow=none;endFill=0;" edge="1" parent="1" source="Aag9fr4QGZ1FVb1t3TX5-2" target="Aag9fr4QGZ1FVb1t3TX5-28">
          <mxGeometry relative="1" as="geometry" />
        </mxCell>
        <mxCell id="Aag9fr4QGZ1FVb1t3TX5-2" value="Conferencia" style="whiteSpace=wrap;html=1;align=center;" vertex="1" parent="1">
          <mxGeometry x="620" y="210" width="100" height="40" as="geometry" />
        </mxCell>
        <mxCell id="Aag9fr4QGZ1FVb1t3TX5-35" style="rounded=0;orthogonalLoop=1;jettySize=auto;html=1;exitX=1;exitY=0.5;exitDx=0;exitDy=0;entryX=0;entryY=0.5;entryDx=0;entryDy=0;" edge="1" parent="1" source="Aag9fr4QGZ1FVb1t3TX5-3" target="Aag9fr4QGZ1FVb1t3TX5-2">
          <mxGeometry relative="1" as="geometry" />
        </mxCell>
        <mxCell id="Aag9fr4QGZ1FVb1t3TX5-38" style="rounded=0;orthogonalLoop=1;jettySize=auto;html=1;exitX=0.5;exitY=1;exitDx=0;exitDy=0;entryX=0.5;entryY=0;entryDx=0;entryDy=0;endArrow=none;endFill=0;" edge="1" parent="1" source="Aag9fr4QGZ1FVb1t3TX5-3" target="Aag9fr4QGZ1FVb1t3TX5-36">
          <mxGeometry relative="1" as="geometry" />
        </mxCell>
        <mxCell id="Aag9fr4QGZ1FVb1t3TX5-3" value="Asiste" style="shape=rhombus;perimeter=rhombusPerimeter;whiteSpace=wrap;html=1;align=center;" vertex="1" parent="1">
          <mxGeometry x="400" y="200" width="120" height="60" as="geometry" />
        </mxCell>
        <mxCell id="Aag9fr4QGZ1FVb1t3TX5-4" value="ID_Participante" style="ellipse;whiteSpace=wrap;html=1;align=center;fontStyle=4;" vertex="1" parent="1">
          <mxGeometry x="10" y="160" width="100" height="40" as="geometry" />
        </mxCell>
        <mxCell id="Aag9fr4QGZ1FVb1t3TX5-5" value="ID_Conferencia" style="ellipse;whiteSpace=wrap;html=1;align=center;fontStyle=4;" vertex="1" parent="1">
          <mxGeometry x="690" y="90" width="100" height="40" as="geometry" />
        </mxCell>
        <mxCell id="Aag9fr4QGZ1FVb1t3TX5-6" value="Apellidos" style="ellipse;whiteSpace=wrap;html=1;align=center;" vertex="1" parent="1">
          <mxGeometry x="230" y="90" width="100" height="40" as="geometry" />
        </mxCell>
        <mxCell id="Aag9fr4QGZ1FVb1t3TX5-8" value="Nombre" style="ellipse;whiteSpace=wrap;html=1;align=center;" vertex="1" parent="1">
          <mxGeometry x="110" y="70" width="100" height="40" as="geometry" />
        </mxCell>
        <mxCell id="Aag9fr4QGZ1FVb1t3TX5-9" value="Email" style="ellipse;whiteSpace=wrap;html=1;align=center;" vertex="1" parent="1">
          <mxGeometry x="30" y="280" width="100" height="40" as="geometry" />
        </mxCell>
        <mxCell id="Aag9fr4QGZ1FVb1t3TX5-10" value="UsuarioTwitter" style="ellipse;whiteSpace=wrap;html=1;align=center;" vertex="1" parent="1">
          <mxGeometry x="50" y="360" width="100" height="40" as="geometry" />
        </mxCell>
        <mxCell id="Aag9fr4QGZ1FVb1t3TX5-11" value="Avatar" style="ellipse;whiteSpace=wrap;html=1;align=center;" vertex="1" parent="1">
          <mxGeometry x="300" y="330" width="100" height="40" as="geometry" />
        </mxCell>
        <mxCell id="Aag9fr4QGZ1FVb1t3TX5-12" value="AceptoTerminos" style="ellipse;whiteSpace=wrap;html=1;align=center;" vertex="1" parent="1">
          <mxGeometry x="220" y="420" width="100" height="40" as="geometry" />
        </mxCell>
        <mxCell id="Aag9fr4QGZ1FVb1t3TX5-13" value="Ocupacion" style="ellipse;whiteSpace=wrap;html=1;align=center;" vertex="1" parent="1">
          <mxGeometry x="110" y="420" width="100" height="40" as="geometry" />
        </mxCell>
        <mxCell id="Aag9fr4QGZ1FVb1t3TX5-23" value="Conferencista" style="ellipse;whiteSpace=wrap;html=1;align=center;" vertex="1" parent="1">
          <mxGeometry x="620" y="410" width="100" height="40" as="geometry" />
        </mxCell>
        <mxCell id="Aag9fr4QGZ1FVb1t3TX5-26" value="TituloConferencia" style="ellipse;whiteSpace=wrap;html=1;align=center;" vertex="1" parent="1">
          <mxGeometry x="530" y="310" width="120" height="40" as="geometry" />
        </mxCell>
        <mxCell id="Aag9fr4QGZ1FVb1t3TX5-27" value="Horario" style="ellipse;whiteSpace=wrap;html=1;align=center;" vertex="1" parent="1">
          <mxGeometry x="550" y="100" width="100" height="40" as="geometry" />
        </mxCell>
        <mxCell id="Aag9fr4QGZ1FVb1t3TX5-28" value="Registro" style="ellipse;whiteSpace=wrap;html=1;align=center;" vertex="1" parent="1">
          <mxGeometry x="730" y="310" width="100" height="40" as="geometry" />
        </mxCell>
        <mxCell id="Aag9fr4QGZ1FVb1t3TX5-30" style="rounded=0;orthogonalLoop=1;jettySize=auto;html=1;exitX=0.5;exitY=0;exitDx=0;exitDy=0;endArrow=none;endFill=0;entryX=0.5;entryY=1;entryDx=0;entryDy=0;" edge="1" parent="1" source="Aag9fr4QGZ1FVb1t3TX5-2" target="Aag9fr4QGZ1FVb1t3TX5-27">
          <mxGeometry relative="1" as="geometry">
            <mxPoint x="620" y="170" as="targetPoint" />
          </mxGeometry>
        </mxCell>
        <mxCell id="Aag9fr4QGZ1FVb1t3TX5-32" style="rounded=0;orthogonalLoop=1;jettySize=auto;html=1;exitX=0.5;exitY=1;exitDx=0;exitDy=0;entryX=0.7;entryY=0;entryDx=0;entryDy=0;entryPerimeter=0;endArrow=none;endFill=0;" edge="1" parent="1" source="Aag9fr4QGZ1FVb1t3TX5-2" target="Aag9fr4QGZ1FVb1t3TX5-26">
          <mxGeometry relative="1" as="geometry" />
        </mxCell>
        <mxCell id="Aag9fr4QGZ1FVb1t3TX5-33" style="rounded=0;orthogonalLoop=1;jettySize=auto;html=1;exitX=0.5;exitY=1;exitDx=0;exitDy=0;entryX=0.59;entryY=0.025;entryDx=0;entryDy=0;entryPerimeter=0;endArrow=none;endFill=0;" edge="1" parent="1" source="Aag9fr4QGZ1FVb1t3TX5-2" target="Aag9fr4QGZ1FVb1t3TX5-23">
          <mxGeometry relative="1" as="geometry" />
        </mxCell>
        <mxCell id="Aag9fr4QGZ1FVb1t3TX5-36" value="ID_Asistencia" style="ellipse;whiteSpace=wrap;html=1;align=center;fontStyle=4;" vertex="1" parent="1">
          <mxGeometry x="410" y="290" width="100" height="40" as="geometry" />
        </mxCell>
        <mxCell id="Aag9fr4QGZ1FVb1t3TX5-39" value="N:M" style="rounded=0;whiteSpace=wrap;html=1;strokeColor=none;fillColor=none;" vertex="1" parent="1">
          <mxGeometry x="400" y="176" width="120" height="30" as="geometry" />
        </mxCell>
      </root>
    </mxGraphModel>
  </diagram>
</mxfile>
